{"title":"Star Trek VI - The Undiscovered Country  (1991)  x264  [=Faith=]","uid":12018967,"size":2028565875,"categoryP":"video","categoryS":"movies","magnet":"?xt=urn:btih:0d61bf0c546280cff34faec77f6e312acbc45127&amp;dn=Star+Trek+VI+-+The+Undiscovered+Country++%281991%29++x264++%5B%3DFaith%3D%5D&amp;tr=udp%3A%2F%2Ftracker.openbittorrent.com%3A80&amp;tr=udp%3A%2F%2Fopen.demonii.com%3A1337&amp;tr=udp%3A%2F%2Ftracker.coppersurfer.tk%3A6969&amp;tr=udp%3A%2F%2Fexodus.desync.com%3A6969","seeders":0,"leechers":1,"uploader":"Faithwyn","files":7,"time":1434376529,"description":"    Star Trek VI: The Undiscovered Country\n\n\n    &quot;Only Nixon could go to China.&quot; -Old Vulcan Proverb.\n\nOn the eve of retirement, Kirk and McCoy are charged with assassinating the\nKlingon High Chancellor and imprisoned. The Enterprise crew must help them\nescape to thwart a conspiracy aimed at sabotaging the last best hope for peace.\n\n\nThe Film:\n\nDirected by: Nicholas Meyer\nProduced by: Ralph Winter, Steven-Charles Jaffe\nScreenplay by: Nicholas Meyer, Denny Martin Flinn\nStars: William Shatner, Leonard Nimoy, DeForest Kelley,\n       James Doohan Walter Koenig, Nichelle Nichols, George Takei,\n       Kim Cattrall, Christopher Plummer, David Warner, Rosanna DeSoto,\n       Iman, Michael Dorn, Brock Peters, Mark Lenard, Janice Rand\nMusic by: Cliff Eidelman\nCinematography: Hiro Narita\nEdited by: Ronald Roose, William Hoy\nDistributed by: Paramount Pictures\nRelease dates: December 6, 1991\nRunning time: 110 minutes\nCountry: United States\nLanguages: English, French, Spanish, Portuguese\nSubtitles: English, French, Spanish, Portuguese\nIMDB Rating: 7.2\n\n\nGeneral:\n\nComplete name : Star Trek VI - The Undiscovered Country.m4v\nFormat : MPEG-4\nFormat profile : Base Media / Version 2\nCodec ID : mp42\nFile size : 1.89 GiB\nDuration : 1h 49mn\nOverall bit rate mode : Variable\nOverall bit rate : 2 460 Kbps\nEncoded date : UTC 2015-06-14 09:15:07\nTagged date : UTC 2015-06-14 10:12:13\nWriting application : HandBrake 0.9.9\n\n\nVideo:\n\nID : 1\nFormat : AVC\nFormat/Info : Advanced Video Codec\nFormat profile : &lt;a class=&quot;__cf_email__&quot; href=&quot;/cdn-cgi/l/email-protection&quot; data-cfemail=&quot;1850717f7058542c3629&quot;&gt;[email&amp;#160;protected]&lt;/a&gt;&lt;script data-cfhash='f9e31' type=&quot;text/javascript&quot;&gt;\n/* &lt;![CDATA[ */!function(){try{var t=&quot;currentScript&quot;in document?document.currentScript:function(){for(var t=document.getElementsByTagName(&quot;script&quot;),e=t.length;e--;)if(t[e].getAttribute(&quot;data-cfhash&quot;))return t[e]}();if(t&amp;&amp;t.previousSibling){var e,r,n,i,c=t.previousSibling,a=c.getAttribute(&quot;data-cfemail&quot;);if(a){for(e=&quot;&quot;,r=parseInt(a.substr(0,2),16),n=2;a.length-n;n+=2)i=parseInt(a.substr(n,2),16)^r,e+=String.fromCharCode(i);e=document.createTextNode(e),c.parentNode.replaceChild(e,c)}t.parentNode.removeChild(t);}}catch(u){}}()/* ]]&gt; */&lt;/script&gt;\nFormat settings, CABAC : Yes\nFormat settings, ReFrames : 8 frames\nCodec ID : avc1\nCodec ID/Info : Advanced Video Coding\nDuration : 1h 49min\nBit rate : 1 163 Kbps\nWidth : 720 pixels\nHeight : 368 pixels\nDisplay aspect ratio : 2.35:1\nFrame rate mode : Variable\nFrame rate : 23.976 fps\nMinimum frame rate : 15.574 fps\nMaximum frame rate : 29.970 fps\nColor space : YUV\nChroma subsampling : 4:2:0\nBit depth : 8 bits\nScan type : Progressive\nBits/(Pixel*Frame) : 0.183\nStream size : 914 MiB (47%)\nWriting library : x264 core 130 r2273 b3065e6\nEncoding settings : (see .nfo file for details)\nColor primaries : BT.601 NTSC\nTransfer characteristics : BT.709\nMatrix coefficients : BT.601\n\n\nAudio 1:\n\nID : 2\nFormat : AC-3\nFormat/Info : Audio Coding 3\nMode extension : CM (complete main)\nFormat settings, Endianness : Big\nCodec ID : ac-3\nDuration : 1h 49mn\nBit rate mode : Constant\nBit rate : 448 Kbps\nChannel(s) : 6 channels\nChannel positions : Front: L C R, Side: L R, LFE\nSampling rate : 48.0 KHz\nBit depth : 16 bits\nCompression mode : Lossy\nStream size : 352 MiB (18%)\nLanguage : English\n\n     See .nfo file for additional audio and subtitle info!\n\n\nSubtitles:\n\nTracks : 1-8\nID : 6-13\nFormat : mp4s\nCodec ID : E0\nDuration : 1h 49min\nBit rate mode : Variable\nLanguages : English, French, Spanish, Portuguese\nTracks 5-8 : Subs for Klingon language only!","torrent":{"xt":"urn:btih:0d61bf0c546280cff34faec77f6e312acbc45127","amp;dn":"Star+Trek+VI+-+The+Undiscovered+Country++%281991%29++x264++%5B%3DFaith%3D%5D","amp;tr":["udp%3A%2F%2Ftracker.openbittorrent.com%3A80","udp%3A%2F%2Fopen.demonii.com%3A1337","udp%3A%2F%2Ftracker.coppersurfer.tk%3A6969","udp%3A%2F%2Fexodus.desync.com%3A6969"],"infoHash":"0d61bf0c546280cff34faec77f6e312acbc45127","infoHashBuffer":{"type":"Buffer","data":[13,97,191,12,84,98,128,207,243,79,174,199,127,110,49,42,203,196,81,39]},"announce":[],"urlList":[]}}